<?xml version="1.0" encoding="UTF-8" standalone="no"?>
<svg
   height="24"
   viewBox="0 -960 960 960"
   width="24"
   version="1.1"
   id="svg4"
   sodipodi:docname="location_on_FILL0_wght400_GRAD0_opsz24.svg"
   inkscape:version="1.2.2 (732a01da63, 2022-12-09)"
   xmlns:inkscape="http://www.inkscape.org/namespaces/inkscape"
   xmlns:sodipodi="http://sodipodi.sourceforge.net/DTD/sodipodi-0.dtd"
   xmlns="http://www.w3.org/2000/svg"
   xmlns:svg="http://www.w3.org/2000/svg">
  <defs
     id="defs8" />
  <sodipodi:namedview
     id="namedview6"
     pagecolor="#ffffff"
     bordercolor="#000000"
     borderopacity="0.25"
     inkscape:showpageshadow="2"
     inkscape:pageopacity="0.0"
     inkscape:pagecheckerboard="0"
     inkscape:deskcolor="#d1d1d1"
     showgrid="false"
     inkscape:zoom="33.5"
     inkscape:cx="9.3432836"
     inkscape:cy="12"
     inkscape:window-width="1920"
     inkscape:window-height="991"
     inkscape:window-x="-9"
     inkscape:window-y="-9"
     inkscape:window-maximized="1"
     inkscape:current-layer="svg4" />
  <path
     style="fill:#ff5555;stroke-width:0.0298507"
     d="M 11.468251,18.82473 C 9.1117749,16.583326 7.565957,14.649529 6.7296131,12.89676 6.2206262,11.830051 6.0298507,11.072471 6.0298507,10.117965 c 0,-1.7636719 0.5739743,-3.2103472 1.7339391,-4.370312 0.9393957,-0.9393957 2.0241293,-1.4817625 3.3556132,-1.6778063 0.349448,-0.051452 1.406051,-0.051008 1.776119,7.465e-4 1.297415,0.1814436 2.438091,0.7592569 3.378432,1.7113545 1.126933,1.1410232 1.696195,2.5962401 1.696195,4.3360173 0,0.954506 -0.190775,1.712086 -0.699762,2.778795 -0.556902,1.167127 -1.411685,2.389124 -2.670356,3.817536 -0.457892,0.519643 -2.525505,2.584211 -2.588022,2.584211 -0.02511,0 -0.269803,-0.2132 -0.543758,-0.473777 z m 0.964585,-6.854561 c 0.558283,-0.116811 1.122428,-0.557643 1.37442,-1.073992 C 13.954323,10.594824 14,10.382447 14,10 14,9.8027385 13.981748,9.5974579 13.954775,9.4913463 13.734416,8.6244609 12.905423,7.9861113 12,7.9861113 c -0.905389,0 -1.734425,0.6383824 -1.954775,1.505235 -0.059443,0.2338471 -0.059443,0.7834607 0,1.0173077 0.08887,0.349599 0.239588,0.602918 0.533928,0.897376 0.220264,0.220351 0.319547,0.29524 0.525325,0.396252 0.416967,0.204681 0.875517,0.262635 1.328358,0.167887 z"
     id="path377"
     transform="matrix(40,0,0,40,0,-960)" />
  <path
     d="M480-480q33 0 56.5-23.5T560-560q0-33-23.5-56.5T480-640q-33 0-56.5 23.5T400-560q0 33 23.5 56.5T480-480Zm0 294q122-112 181-203.5T720-552q0-109-69.5-178.5T480-800q-101 0-170.5 69.5T240-552q0 71 59 162.5T480-186Zm0 106Q319-217 239.5-334.5T160-552q0-150 96.5-239T480-880q127 0 223.5 89T800-552q0 100-79.5 217.5T480-80Zm0-480Z"
     id="path2" />
</svg>
