<?xml version="1.0" encoding="utf-8"?>
<!-- Generator: Adobe Illustrator 16.0.0, SVG Export Plug-In . SVG Version: 6.00 Build 0)  -->
<!DOCTYPE svg PUBLIC "-//W3C//DTD SVG 1.1//EN" "http://www.w3.org/Graphics/SVG/1.1/DTD/svg11.dtd">
<svg version="1.1" id="Layer_1" xmlns="http://www.w3.org/2000/svg" xmlns:xlink="http://www.w3.org/1999/xlink" x="0px" y="0px"
	 width="209.549px" height="176.52px" viewBox="0 0 209.549 176.52" enable-background="new 0 0 209.549 176.52"
	 xml:space="preserve">
<g id="Layer_2">
	<g>
		<g>
			<path fill="#487699" d="M4.125,136.785c0,1.851,0.587,3.337,1.763,4.462c1.174,1.125,2.912,1.688,5.213,1.688h13.425
				c2.1,0,3.787-0.676,5.063-2.023c1.274-1.352,1.912-3.023,1.912-5.024c0-1.899-0.612-3.551-1.837-4.95
				c-1.227-1.397-2.938-2.101-5.138-2.101H11.101c-2.851,0-5.25-1-7.2-3c-1.95-1.999-2.925-4.448-2.925-7.351
				c0-2.852,0.975-5.287,2.925-7.313c1.95-2.024,4.35-3.038,7.2-3.038H24.75c2.95,0,5.374,0.839,7.275,2.514
				c1.899,1.677,2.85,3.787,2.85,6.338v0.601H30.75v-0.601c0-1.352-0.5-2.513-1.5-3.487c-1.001-0.976-2.601-1.462-4.8-1.462h-12.9
				c-1.9,0-3.449,0.611-4.649,1.837c-1.2,1.228-1.8,2.737-1.8,4.538c0,1.751,0.549,3.288,1.649,4.611c1.1,1.325,2.7,1.986,4.8,1.986
				H24.9c3,0,5.537,1.038,7.612,3.112c2.074,2.076,3.112,4.663,3.112,7.763c0,3.052-1.038,5.639-3.112,7.764
				c-2.075,2.126-4.612,3.188-7.612,3.188H10.425c-2.45,0-4.8-0.837-7.05-2.513C1.125,142.648,0,140.135,0,136.785v-0.075h4.125
				V136.785z"/>
			<path fill="#487699" d="M61.726,142.935h28.649v3.899H57.601v-38.7h32.475v3.9h-28.35V142.935L61.726,142.935z M85.65,125.16
				v3.75H68.025v-3.75H85.65z"/>
			<path fill="#487699" d="M137.325,108.135v3.9H100.5v-3.9H137.325z M120.976,118.11v28.726h-4.125V118.11H120.976z"/>
			<path fill="#487699" d="M151.574,146.835v-38.7h4.125v38.7H151.574z"/>
			<path fill="#487699" d="M182.397,108.135v34.801h27.149v3.899h-31.274v-38.7H182.397z"/>
		</g>
		<g>
			<polygon fill="#487699" points="79.845,72.935 16.034,9.124 10.697,14.46 79.845,83.606 96.604,66.849 91.332,61.447 			"/>
		</g>
		<path fill="#487699" d="M187.255,10.766l-63.811,63.812L106.03,57.163l37.8-39.608L128.009,0H73.503L57.681,17.552L92.885,54.44
			l10.07,10.316l20.489,20.49L192.59,16.1L187.255,10.766z M101.381,50.737L83.427,33.599c-0.001-0.001-0.001-0.001-0.002-0.002
			v-0.001l-3.716-3.895L67.973,17.406l8.888-9.86h47.791l8.89,9.86l-14.069,14.741c-0.012-0.005-0.023-0.009-0.035-0.015
			L101.381,50.737z"/>
		<path fill="#487699" d="M94.432,29.146c0,0.925,0.293,1.669,0.881,2.23c0.587,0.563,1.456,0.845,2.606,0.845h6.712
			c1.05,0,1.894-0.339,2.531-1.014c0.637-0.675,0.956-1.514,0.956-2.514c0-0.948-0.307-1.774-0.918-2.476
			c-0.613-0.698-1.469-1.051-2.569-1.051h-6.712c-1.425,0-2.625-0.5-3.6-1.5c-0.975-0.999-1.462-2.226-1.462-3.674
			c0-1.427,0.487-2.646,1.462-3.656c0.975-1.014,2.175-1.521,3.6-1.521h6.825c1.476,0,2.687,0.419,3.638,1.257
			c0.95,0.838,1.426,1.895,1.426,3.17v0.299h-2.063v-0.299c0-0.677-0.25-1.258-0.75-1.744c-0.5-0.487-1.301-0.73-2.4-0.73h-6.45
			c-0.95,0-1.725,0.307-2.325,0.919c-0.6,0.612-0.9,1.369-0.9,2.27c0,0.876,0.274,1.645,0.825,2.307
			c0.55,0.662,1.35,0.993,2.4,0.993h6.675c1.5,0,2.769,0.521,3.806,1.558s1.557,2.331,1.557,3.881c0,1.525-0.52,2.818-1.557,3.882
			c-1.038,1.063-2.307,1.594-3.806,1.594h-7.238c-1.225,0-2.4-0.418-3.525-1.256s-1.688-2.095-1.688-3.77v-0.038h2.063V29.146
			L94.432,29.146z"/>
	</g>
</g>
<g>
	<path fill="#487699" d="M46.455,176.52l-2.014-4.365h-6.707l-2.015,4.365h-0.693l5.662-12.232h0.817l5.671,12.232H46.455z
		 M37.981,171.61h6.213l-3.106-6.744L37.981,171.61z"/>
	<path fill="#487699" d="M50.702,164.469c0.62-0.105,1.205-0.18,1.753-0.227c0.547-0.047,1.125-0.07,1.733-0.07
		c1.805,0,3.17,0.326,4.095,0.979s1.387,1.662,1.387,3.029c0,1.334-0.481,2.344-1.444,3.029s-2.47,1.029-4.521,1.029
		c-0.747,0-1.533-0.037-2.356-0.107v4.389h-0.646V164.469z M56.749,171.305c0.775-0.26,1.342-0.646,1.7-1.158
		c0.357-0.512,0.537-1.16,0.537-1.941c0-1.201-0.396-2.084-1.188-2.645c-0.792-0.563-1.995-0.844-3.61-0.844
		c-1.001,0-1.947,0.068-2.841,0.207v6.637c0.735,0.088,1.526,0.131,2.375,0.131C54.963,171.692,55.972,171.563,56.749,171.305z"/>
	<path fill="#487699" d="M72.532,176.52l-2.014-4.365h-6.707l-2.015,4.365h-0.693l5.662-12.232h0.817l5.671,12.232H72.532z
		 M64.058,171.61h6.213l-3.106-6.744L64.058,171.61z"/>
	<path fill="#487699" d="M85.974,176.52l-5.044-5.406c-0.323,0.018-0.659,0.025-1.007,0.025c-0.456,0-0.864-0.008-1.226-0.025
		c-0.361-0.016-0.785-0.041-1.273-0.074v5.48h-0.646v-12.051c0.589-0.094,1.162-0.166,1.72-0.219
		c0.557-0.053,1.19-0.078,1.899-0.078c1.235,0,2.248,0.119,3.04,0.359c0.792,0.238,1.381,0.613,1.768,1.119
		c0.386,0.508,0.579,1.162,0.579,1.967c0.006,0.992-0.333,1.773-1.017,2.344s-1.723,0.932-3.116,1.086l5.13,5.473H85.974z
		 M78.708,170.58c0.322,0.014,0.728,0.021,1.216,0.021c1.229,0,2.226-0.109,2.992-0.326c0.767-0.219,1.328-0.545,1.687-0.98
		c0.357-0.436,0.536-0.986,0.536-1.652c0-0.717-0.163-1.287-0.489-1.715s-0.836-0.736-1.529-0.926s-1.61-0.285-2.75-0.285
		c-0.602,0-1.121,0.018-1.558,0.053c-0.438,0.037-0.899,0.094-1.388,0.17v5.563C77.957,170.541,78.384,170.567,78.708,170.58z"/>
	<path fill="#487699" d="M92.634,176.52v-11.688h-5.111v-0.545h10.868v0.545h-5.11v11.688H92.634z"/>
	<path fill="#487699" d="M113.989,164.287h0.703v12.232h-0.627v-11.158l-5.5,9.504h-0.723l-5.5-9.471v11.125h-0.627v-12.232h0.712
		l5.795,10.051L113.989,164.287z"/>
	<path fill="#487699" d="M120.431,175.973h7.971v0.547h-8.617v-12.232h8.521v0.545h-7.875v5.125h6.953v0.545h-6.953V175.973z"/>
	<path fill="#487699" d="M142.31,164.287h0.627v12.232h-0.713l-9.215-11.381v11.381h-0.627v-12.232h0.711l9.217,11.381V164.287z"/>
	<path fill="#487699" d="M151.333,176.52v-11.688h-5.111v-0.545h10.869v0.545h-5.111v11.688H151.333z"/>
	<path fill="#487699" d="M160.966,176.539c-0.602-0.084-1.176-0.211-1.719-0.375v-0.563c1.189,0.348,2.352,0.521,3.486,0.521
		c1.381,0,2.42-0.232,3.121-0.695c0.699-0.463,1.049-1.146,1.049-2.049c0-0.508-0.117-0.928-0.352-1.262
		c-0.234-0.332-0.602-0.609-1.102-0.83s-1.168-0.412-2.004-0.578l-0.637-0.125c-1.273-0.248-2.213-0.631-2.818-1.152
		c-0.604-0.521-0.906-1.211-0.906-2.07c0-0.666,0.18-1.24,0.537-1.723s0.889-0.854,1.596-1.111c0.705-0.26,1.576-0.389,2.607-0.389
		c0.551,0,1.1,0.033,1.648,0.104c0.547,0.068,1.063,0.168,1.543,0.301v0.563c-1.063-0.281-2.141-0.422-3.229-0.422
		c-1.33,0-2.332,0.227-3.008,0.678c-0.674,0.451-1.012,1.107-1.012,1.967c0,0.502,0.105,0.92,0.318,1.256s0.551,0.617,1.018,0.844
		c0.465,0.227,1.096,0.418,1.895,0.578l0.637,0.125c0.93,0.182,1.684,0.414,2.26,0.697c0.576,0.285,1.004,0.633,1.279,1.047
		c0.275,0.412,0.412,0.908,0.412,1.486c0,1.064-0.422,1.881-1.268,2.451s-2.051,0.855-3.615,0.855
		C162.147,176.668,161.567,176.625,160.966,176.539z"/>
</g>
</svg>
