<?xml version="1.0" encoding="utf-8"?>
<!-- Generator: Adobe Illustrator 16.0.0, SVG Export Plug-In . SVG Version: 6.00 Build 0)  -->
<!DOCTYPE svg PUBLIC "-//W3C//DTD SVG 1.1//EN" "http://www.w3.org/Graphics/SVG/1.1/DTD/svg11.dtd">
<svg version="1.1" id="Layer_1" xmlns="http://www.w3.org/2000/svg" xmlns:xlink="http://www.w3.org/1999/xlink" x="0px" y="0px"
	 width="286.797px" height="179.598px" viewBox="0 0 286.797 179.598" enable-background="new 0 0 286.797 179.598"
	 xml:space="preserve">
<g id="Layer_2">
	<g>
		<g>
			<path fill="#71816D" d="M23.55,111.064c3.35,0,6.063,1.05,8.138,3.149c2.074,2.101,3.112,4.775,3.112,8.024
				c0,3-0.875,5.551-2.625,7.65c-1.751,2.1-4.05,3.524-6.9,4.274l11.4,15.601H31.65l-11.324-15.525H10.5v-3.824h12.075
				c2.299,0,4.225-0.737,5.774-2.213c1.55-1.475,2.325-3.487,2.325-6.037c0-2.148-0.638-3.888-1.912-5.213
				c-1.275-1.324-3.338-1.987-6.188-1.987H4.125v34.801H0v-38.7H23.55L23.55,111.064z"/>
			<path fill="#71816D" d="M58.649,145.864h28.649v3.9H54.524v-38.7h32.475v3.899h-28.35V145.864L58.649,145.864z M82.574,128.09
				v3.75H64.949v-3.75H82.574z"/>
			<path fill="#71816D" d="M142.499,120.814h-4.125v-5.851h-29.851v34.801h-4.125v-34.575c0-1.149,0.399-2.124,1.2-2.925
				c0.799-0.8,1.774-1.2,2.925-1.2h29.851c1.149,0,2.124,0.4,2.925,1.2c0.799,0.801,1.2,1.774,1.2,2.925V120.814z M114.823,149.765
				v-3.9h23.551V132.14h-15.825v-3.9h19.95v17.4c0,1.149-0.401,2.126-1.2,2.925c-0.801,0.801-1.775,1.2-2.925,1.2H114.823z"/>
			<path fill="#71816D" d="M164.396,149.765v-38.7h4.125v38.7H164.396z"/>
			<path fill="#71816D" d="M227.997,111.064v38.7h-4.5l-33.075-38.7h5.1l28.352,33.149v-33.149H227.997L227.997,111.064z
				 M190.497,149.765v-28.65l4.125,4.875v23.775H190.497z"/>
			<path fill="#71816D" d="M282.297,149.765l-4.727-9.601h-17.773l1.801-3.75h14.25l-10.5-21.601l-16.951,34.95h-4.5l18.9-38.7h5.1
				l18.9,38.7L282.297,149.765L282.297,149.765z"/>
		</g>
		<g>
			<path fill="#71816D" d="M102.528,173.349c0-2.165,0.551-3.754,1.653-4.766c1.102-1.011,2.66-1.517,4.674-1.517
				c0.596,0,1.157,0.034,1.687,0.104c0.528,0.068,1.068,0.172,1.619,0.311v0.563c-1.083-0.287-2.197-0.431-3.344-0.431
				c-1.83,0-3.222,0.448-4.175,1.344c-0.953,0.896-1.43,2.35-1.43,4.359c0,1.411,0.223,2.539,0.669,3.385
				c0.447,0.846,1.074,1.449,1.882,1.81c0.807,0.361,1.787,0.542,2.939,0.542c0.602,0,1.17-0.039,1.706-0.119
				c0.535-0.08,1.119-0.217,1.752-0.409v0.563c-1.083,0.343-2.238,0.513-3.467,0.513
				C104.584,179.597,102.528,177.515,102.528,173.349z"/>
			<path fill="#71816D" d="M115.715,179.448v-12.232h0.646v5.67h8.978v-5.67h0.646v12.232h-0.646v-6.017h-8.978v6.017H115.715z"/>
			<path fill="#71816D" d="M140.946,179.448l-2.014-4.364h-6.707l-2.015,4.364h-0.693l5.662-12.232h0.817l5.671,12.232H140.946z
				 M132.473,174.539h6.213l-3.106-6.744L132.473,174.539z"/>
			<path fill="#71816D" d="M145.193,179.448v-12.232h0.646v11.688h7.667v0.546L145.193,179.448L145.193,179.448z"/>
			<path fill="#71816D" d="M157.447,178.902h7.972v0.546h-8.616v-12.232h8.521v0.547h-7.877v5.123h6.955v0.547h-6.955V178.902z"/>
			<path fill="#71816D" d="M172.743,179.448V167.76h-5.111v-0.546H178.5v0.546h-5.109v11.688H172.743z"/>
		</g>
		<g>
			<polygon fill="#71816D" points="119.075,72.935 55.264,9.124 49.928,14.46 119.075,83.606 135.833,66.849 130.562,61.447 			"/>
		</g>
		<path fill="#71816D" d="M226.484,10.766l-63.811,63.811L145.26,57.163l37.801-39.608L167.238,0h-54.504L96.911,17.552
			l35.205,36.889l10.07,10.316l20.49,20.49l69.146-69.146L226.484,10.766z M140.612,50.737L122.659,33.6
			c-0.001-0.001-0.003-0.002-0.004-0.003v-0.001l-3.716-3.895l-11.735-12.296l8.887-9.86h47.792l8.887,9.86L158.7,32.148
			c-0.011-0.005-0.024-0.009-0.035-0.015L140.612,50.737z"/>
		<path fill="#71816D" d="M143.642,14.804c1.676,0,3.034,0.524,4.072,1.575c1.038,1.052,1.558,2.391,1.558,4.017
			c0,1.502-0.438,2.777-1.313,3.829c-0.876,1.051-2.027,1.765-3.454,2.14l5.706,7.807h-2.516l-5.667-7.77h-4.917v-1.914h6.043
			c1.15,0,2.115-0.369,2.89-1.107c0.775-0.737,1.164-1.745,1.164-3.021c0-1.075-0.318-1.945-0.957-2.608s-1.671-0.995-3.097-0.995
			h-9.234v17.416h-2.064V14.804H143.642z"/>
	</g>
</g>
</svg>
