<?xml version="1.0" encoding="utf-8"?>
<!-- Generator: Adobe Illustrator 16.0.0, SVG Export Plug-In . SVG Version: 6.00 Build 0)  -->
<!DOCTYPE svg PUBLIC "-//W3C//DTD SVG 1.1//EN" "http://www.w3.org/Graphics/SVG/1.1/DTD/svg11.dtd">
<svg version="1.1" id="Layer_1" xmlns="http://www.w3.org/2000/svg" xmlns:xlink="http://www.w3.org/1999/xlink" x="0px" y="0px"
	 width="343.047px" height="137.082px" viewBox="0 0 343.047 137.082" enable-background="new 0 0 343.047 137.082"
	 xml:space="preserve">
<g id="Layer_2">
	<g>
		<g>
			<path fill="#9B8694" d="M38.4,137.082l-4.726-9.6H15.9l1.8-3.75h14.25l-10.5-21.602L4.5,137.082H0l18.9-38.7H24l18.9,38.7H38.4z"
				/>
			<path fill="#9B8694" d="M61.875,98.382v34.8h27.15v3.9H57.75v-38.7H61.875z"/>
			<path fill="#9B8694" d="M109.575,98.382l16.649,20.325L142.5,98.382h4.875l-21.075,26.4l-16.725-20.325v32.625h-4.125v-38.7
				H109.575z M147.375,107.982v29.1h-4.125v-23.85L147.375,107.982z"/>
			<path fill="#9B8694" d="M201,137.082l-4.727-9.6H178.5l1.8-3.75h14.25l-10.5-21.602l-16.95,34.95h-4.5l18.9-38.7h5.1l18.9,38.7
				L201,137.082L201,137.082z"/>
			<path fill="#9B8694" d="M230.924,137.082v-3.9h24.075v-30.898h-30.375v34.8h-4.125v-38.7h34.5c1.149,0,2.125,0.401,2.925,1.2
				c0.801,0.801,1.2,1.774,1.2,2.925v30.45c0,1.149-0.399,2.126-1.2,2.925c-0.8,0.801-1.775,1.2-2.925,1.2L230.924,137.082
				L230.924,137.082z"/>
			<path fill="#9B8694" d="M279.447,137.082v-38.7h4.125v38.7H279.447z"/>
			<path fill="#9B8694" d="M343.047,98.382v38.7h-4.5l-33.074-38.7h5.1l28.351,33.15v-33.15H343.047z M305.547,137.082v-28.65
				l4.125,4.875v23.775H305.547z"/>
		</g>
		<g>
			<polygon fill="#9B8694" points="152.381,72.936 88.569,9.124 83.233,14.459 152.381,83.605 169.139,66.849 163.867,61.447 			"/>
		</g>
		<path fill="#9B8694" d="M259.791,10.766l-63.811,63.81l-17.414-17.414l37.801-39.609L200.545,0h-54.506l-15.822,17.553
			l35.204,36.888l10.069,10.317l20.49,20.49l69.146-69.146L259.791,10.766z M173.918,50.737L155.964,33.6
			c-0.001-0.001-0.003-0.002-0.004-0.003v-0.001l-3.716-3.894l-11.735-12.296l8.888-9.86h47.791l8.888,9.86l-14.068,14.742
			c-0.011-0.005-0.024-0.009-0.034-0.014L173.918,50.737z"/>
		<g>
			<path fill="#9B8694" d="M182.122,34.439l-2.431-4.938h-9.143l0.926-1.929h7.33l-5.4-11.109l-8.719,17.976h-2.314l9.723-19.904
				h2.622l9.722,19.904H182.122L182.122,34.439z"/>
		</g>
	</g>
</g>
</svg>
