<?xml version="1.0" encoding="utf-8"?>
<!-- Generator: Adobe Illustrator 16.0.0, SVG Export Plug-In . SVG Version: 6.00 Build 0)  -->
<!DOCTYPE svg PUBLIC "-//W3C//DTD SVG 1.1//EN" "http://www.w3.org/Graphics/SVG/1.1/DTD/svg11.dtd">
<svg version="1.1" id="Layer_1" xmlns="http://www.w3.org/2000/svg" xmlns:xlink="http://www.w3.org/1999/xlink" x="0px" y="0px"
	 width="259.273px" height="175.625px" viewBox="0 0 259.273 175.625" enable-background="new 0 0 259.273 175.625"
	 xml:space="preserve">
<g id="Layer_2">
	<g>
		<g>
			<path fill="#B7A388" d="M4.125,111.143v34.799H0v-38.698h23.625c3.249,0,5.925,1.063,8.024,3.188
				c2.101,2.127,3.148,4.838,3.148,8.139c0,3.351-1.074,6.139-3.225,8.361c-2.15,2.227-4.801,3.338-7.95,3.338h-13.2v-3.824h12.602
				c2.3,0,4.163-0.727,5.588-2.176s2.138-3.375,2.138-5.774c0-4.899-2.576-7.351-7.726-7.351H4.125V111.143z"/>
			<path fill="#B7A388" d="M57.375,142.041h28.649v3.9H53.25v-38.7h32.477v3.899H57.375V142.041z M81.3,124.268v3.75H63.675v-3.75
				H81.3z"/>
			<path fill="#B7A388" d="M132.974,107.241v3.899H96.149v-3.899H132.974z M116.625,117.217v28.725H112.5v-28.725H116.625z"/>
			<path fill="#B7A388" d="M152.248,107.241v34.8h27.15v3.9h-31.275v-38.7H152.248z"/>
			<path fill="#B7A388" d="M195.673,145.941v-38.7h4.125v38.7H195.673z"/>
			<path fill="#B7A388" d="M259.273,107.241v38.7h-4.5l-33.076-38.7h5.1l28.354,33.149v-33.149H259.273z M221.773,145.941v-28.65
				l4.125,4.875v23.775H221.773z"/>
		</g>
		<g>
			<polygon fill="#B7A388" points="107.874,72.935 44.063,9.124 38.727,14.46 107.874,83.606 124.632,66.849 119.361,61.447 			"/>
		</g>
		<path fill="#B7A388" d="M215.285,10.766l-63.811,63.811L134.06,57.162l37.801-39.609L156.039,0h-54.506L85.709,17.553
			l35.205,36.888l10.07,10.317l20.49,20.49l69.146-69.146L215.285,10.766z M129.41,50.737L111.457,33.6
			c-0.001-0.001-0.002-0.002-0.004-0.003v-0.001l-3.716-3.894L96.002,17.406l8.889-9.86h47.792l8.887,9.86L147.5,32.148
			c-0.012-0.005-0.023-0.009-0.035-0.014L129.41,50.737z"/>
		<path fill="#B7A388" d="M124.222,16.829v17.27h-2.049V14.894h11.725c1.613,0,2.939,0.528,3.98,1.582
			c1.043,1.056,1.564,2.4,1.564,4.038c0,1.663-0.535,3.047-1.604,4.15c-1.064,1.104-2.381,1.656-3.943,1.656h-6.549v-1.898h6.252
			c1.141,0,2.064-0.359,2.771-1.079c0.707-0.72,1.063-1.675,1.063-2.866c0-2.431-1.279-3.647-3.834-3.647L124.222,16.829
			L124.222,16.829z"/>
	</g>
</g>
<g>
	<path fill="#B7A388" d="M74.454,175.566l-2.014-4.365h-6.707l-2.015,4.365h-0.693l5.662-12.232h0.817l5.671,12.232H74.454z
		 M65.981,170.656h6.213l-3.106-6.744L65.981,170.656z"/>
	<path fill="#B7A388" d="M78.701,163.516c0.62-0.105,1.205-0.18,1.753-0.227c0.547-0.047,1.125-0.07,1.733-0.07
		c1.805,0,3.17,0.326,4.095,0.979s1.387,1.662,1.387,3.029c0,1.334-0.481,2.344-1.444,3.029s-2.47,1.029-4.521,1.029
		c-0.747,0-1.533-0.037-2.356-0.107v4.389h-0.646V163.516z M84.748,170.352c0.775-0.26,1.342-0.646,1.7-1.158
		c0.357-0.512,0.537-1.16,0.537-1.941c0-1.201-0.396-2.084-1.188-2.645c-0.792-0.563-1.995-0.844-3.61-0.844
		c-1.001,0-1.947,0.068-2.841,0.207v6.637c0.735,0.088,1.526,0.131,2.375,0.131C82.963,170.738,83.972,170.609,84.748,170.352z"/>
	<path fill="#B7A388" d="M100.531,175.566l-2.014-4.365h-6.707l-2.015,4.365h-0.693l5.662-12.232h0.817l5.671,12.232H100.531z
		 M92.058,170.656h6.213l-3.106-6.744L92.058,170.656z"/>
	<path fill="#B7A388" d="M113.974,175.566l-5.044-5.406c-0.323,0.018-0.659,0.025-1.007,0.025c-0.456,0-0.864-0.008-1.226-0.025
		c-0.361-0.016-0.785-0.041-1.273-0.074v5.48h-0.646v-12.051c0.589-0.094,1.162-0.166,1.72-0.219
		c0.557-0.053,1.19-0.078,1.899-0.078c1.235,0,2.248,0.119,3.04,0.359c0.792,0.238,1.381,0.613,1.768,1.119
		c0.386,0.508,0.579,1.162,0.579,1.967c0.006,0.992-0.333,1.773-1.017,2.344s-1.723,0.932-3.116,1.086l5.13,5.473H113.974z
		 M106.707,169.627c0.322,0.014,0.728,0.021,1.216,0.021c1.229,0,2.226-0.109,2.992-0.326c0.767-0.219,1.328-0.545,1.687-0.98
		c0.357-0.436,0.536-0.986,0.536-1.652c0-0.717-0.163-1.287-0.489-1.715s-0.836-0.736-1.529-0.926s-1.61-0.285-2.75-0.285
		c-0.602,0-1.121,0.018-1.558,0.053c-0.438,0.037-0.899,0.094-1.388,0.17v5.563C105.956,169.588,106.384,169.613,106.707,169.627z"
		/>
	<path fill="#B7A388" d="M120.634,175.566v-11.688h-5.111v-0.545h10.868v0.545h-5.11v11.688H120.634z"/>
	<path fill="#B7A388" d="M141.989,163.334h0.703v12.232h-0.627v-11.158l-5.5,9.504h-0.723l-5.499-9.471v11.125h-0.627v-12.232h0.711
		l5.796,10.051L141.989,163.334z"/>
	<path fill="#B7A388" d="M148.43,175.02h7.971v0.547h-8.617v-12.232h8.521v0.545h-7.875v5.125h6.953v0.545h-6.953V175.02z"/>
	<path fill="#B7A388" d="M170.309,163.334h0.627v12.232h-0.713l-9.215-11.381v11.381h-0.627v-12.232h0.711l9.217,11.381V163.334z"/>
	<path fill="#B7A388" d="M179.333,175.566v-11.688h-5.111v-0.545h10.869v0.545h-5.111v11.688H179.333z"/>
	<path fill="#B7A388" d="M188.966,175.586c-0.602-0.084-1.176-0.211-1.719-0.375v-0.563c1.189,0.348,2.352,0.521,3.486,0.521
		c1.381,0,2.42-0.232,3.121-0.695c0.699-0.463,1.049-1.146,1.049-2.049c0-0.508-0.117-0.928-0.352-1.262
		c-0.234-0.332-0.602-0.609-1.102-0.83s-1.168-0.412-2.004-0.578l-0.637-0.125c-1.273-0.248-2.213-0.631-2.818-1.152
		c-0.604-0.521-0.906-1.211-0.906-2.07c0-0.666,0.18-1.24,0.537-1.723s0.889-0.854,1.596-1.111c0.705-0.26,1.576-0.389,2.607-0.389
		c0.551,0,1.1,0.033,1.648,0.104c0.547,0.068,1.063,0.168,1.543,0.301v0.563c-1.063-0.281-2.141-0.422-3.229-0.422
		c-1.33,0-2.332,0.227-3.008,0.678c-0.674,0.451-1.012,1.107-1.012,1.967c0,0.502,0.105,0.92,0.318,1.256s0.551,0.617,1.018,0.844
		c0.465,0.227,1.096,0.418,1.895,0.578l0.637,0.125c0.93,0.182,1.684,0.414,2.26,0.697c0.576,0.285,1.004,0.633,1.279,1.047
		c0.275,0.412,0.412,0.908,0.412,1.486c0,1.064-0.422,1.881-1.268,2.451s-2.051,0.855-3.615,0.855
		C190.147,175.715,189.567,175.672,188.966,175.586z"/>
</g>
</svg>
