<?xml version="1.0" encoding="utf-8"?>
<!-- Generator: Adobe Illustrator 16.0.0, SVG Export Plug-In . SVG Version: 6.00 Build 0)  -->
<!DOCTYPE svg PUBLIC "-//W3C//DTD SVG 1.1//EN" "http://www.w3.org/Graphics/SVG/1.1/DTD/svg11.dtd">
<svg version="1.1" id="Layer_1" xmlns="http://www.w3.org/2000/svg" xmlns:xlink="http://www.w3.org/1999/xlink" x="0px" y="0px"
	 width="249.849px" height="171.759px" viewBox="0 0 249.849 171.759" enable-background="new 0 0 249.849 171.759"
	 xml:space="preserve">
<g>
	<g>
		<path fill="#9D4943" d="M81.223,171.61l-5.044-5.405c-0.323,0.017-0.659,0.024-1.007,0.024c-0.456,0-0.864-0.008-1.226-0.024
			s-0.785-0.041-1.273-0.074v5.479h-0.646V159.56c0.589-0.093,1.162-0.166,1.72-0.219c0.557-0.052,1.19-0.078,1.899-0.078
			c1.235,0,2.248,0.119,3.04,0.359c0.792,0.239,1.381,0.613,1.768,1.12c0.386,0.507,0.579,1.162,0.579,1.967
			c0.006,0.992-0.333,1.772-1.017,2.343s-1.723,0.933-3.116,1.087l5.13,5.472H81.223z M73.957,165.672
			c0.322,0.014,0.728,0.021,1.216,0.021c1.229,0,2.226-0.108,2.992-0.326s1.328-0.544,1.687-0.979
			c0.357-0.436,0.536-0.986,0.536-1.653c0-0.716-0.163-1.287-0.489-1.715c-0.326-0.427-0.836-0.735-1.529-0.926
			c-0.693-0.189-1.61-0.285-2.75-0.285c-0.602,0-1.121,0.019-1.558,0.054c-0.438,0.036-0.899,0.093-1.388,0.17v5.563
			C73.206,165.632,73.633,165.658,73.957,165.672z"/>
		<path fill="#9D4943" d="M86.582,171.064h7.971v0.546h-8.616v-12.232h8.521v0.546h-7.876v5.124h6.954v0.546h-6.954V171.064z"/>
		<path fill="#9D4943" d="M99.377,171.631c-0.603-0.085-1.176-0.211-1.72-0.376v-0.562c1.19,0.347,2.353,0.521,3.486,0.521
			c1.381,0,2.421-0.231,3.121-0.694c0.699-0.463,1.05-1.146,1.05-2.05c0-0.507-0.118-0.927-0.352-1.261
			c-0.234-0.333-0.603-0.61-1.103-0.83c-0.5-0.221-1.168-0.413-2.004-0.579l-0.637-0.124c-1.273-0.248-2.212-0.632-2.817-1.152
			c-0.604-0.521-0.907-1.211-0.907-2.07c0-0.667,0.18-1.241,0.537-1.724s0.89-0.853,1.596-1.111s1.576-0.389,2.608-0.389
			c0.551,0,1.1,0.034,1.648,0.104c0.547,0.068,1.062,0.169,1.543,0.302v0.562c-1.063-0.281-2.141-0.422-3.229-0.422
			c-1.33,0-2.332,0.227-3.007,0.678c-0.675,0.452-1.012,1.108-1.012,1.968c0,0.501,0.105,0.92,0.318,1.256
			c0.212,0.336,0.551,0.617,1.017,0.843c0.465,0.227,1.097,0.419,1.895,0.579l0.637,0.124c0.931,0.182,1.685,0.414,2.261,0.698
			s1.003,0.632,1.278,1.046c0.275,0.413,0.413,0.909,0.413,1.487c0,1.063-0.423,1.88-1.269,2.45c-0.845,0.57-2.05,0.855-3.614,0.855
			C100.558,171.759,99.979,171.717,99.377,171.631z"/>
		<path fill="#9D4943" d="M110.007,171.61v-12.232h0.646v12.232H110.007z"/>
		<path fill="#9D4943" d="M117.436,171.651c-0.494-0.027-1.07-0.077-1.729-0.148V159.56c1.159-0.198,2.33-0.297,3.515-0.297
			c2.306,0,4.047,0.52,5.226,1.558c1.178,1.039,1.767,2.597,1.767,4.674c0,2.094-0.599,3.65-1.796,4.67
			c-1.196,1.02-2.986,1.529-5.367,1.529C118.468,171.693,117.93,171.679,117.436,171.651z M123.929,169.775
			c1.067-0.914,1.602-2.342,1.602-4.281s-0.526-3.372-1.577-4.298c-1.052-0.926-2.647-1.389-4.788-1.389
			c-0.823,0-1.761,0.069-2.813,0.207v10.976c0.811,0.104,1.717,0.157,2.717,0.157C121.243,171.147,122.862,170.69,123.929,169.775z"
			/>
		<path fill="#9D4943" d="M131.202,171.064h7.971v0.546h-8.616v-12.232h8.521v0.546h-7.876v5.124h6.954v0.546h-6.954V171.064z"/>
		<path fill="#9D4943" d="M153.08,159.378h0.627v12.232h-0.713l-9.215-11.381v11.381h-0.627v-12.232h0.712l9.216,11.381V159.378z"/>
		<path fill="#9D4943" d="M158.047,165.511c0-2.165,0.551-3.754,1.653-4.765c1.102-1.011,2.66-1.517,4.674-1.517
			c0.596,0,1.157,0.034,1.687,0.104c0.528,0.068,1.068,0.172,1.619,0.31v0.563c-1.083-0.287-2.197-0.431-3.344-0.431
			c-1.83,0-3.222,0.448-4.175,1.344s-1.43,2.349-1.43,4.359c0,1.411,0.223,2.539,0.669,3.385c0.447,0.846,1.074,1.449,1.882,1.81
			c0.807,0.361,1.787,0.542,2.939,0.542c0.602,0,1.17-0.04,1.706-0.12c0.535-0.08,1.119-0.216,1.752-0.409v0.563
			c-1.083,0.342-2.238,0.512-3.467,0.512C160.103,171.759,158.047,169.677,158.047,165.511z"/>
		<path fill="#9D4943" d="M171.879,171.064h7.971v0.546h-8.616v-12.232h8.521v0.546h-7.876v5.124h6.954v0.546h-6.954V171.064z"/>
	</g>
	<g>
		<polygon fill="#9D4943" points="103.06,72.935 39.249,9.124 33.913,14.459 103.06,83.606 119.818,66.849 114.547,61.447 		"/>
	</g>
	<g>
		<path fill="#9D4943" d="M142.685,32.148l2.839-2.976l-2.874,2.962C142.661,32.14,142.674,32.144,142.685,32.148z"/>
		<path fill="#9D4943" d="M210.47,10.766l-63.811,63.81l-17.414-17.413l37.8-39.609L151.224,0H96.719L80.896,17.553L116.1,54.44
			l10.07,10.317l20.49,20.49l69.147-69.146L210.47,10.766z M124.597,50.737L91.188,17.406l8.887-9.86h47.791l8.888,9.86
			L124.597,50.737z"/>
		<polygon fill="#9D4943" points="145.528,29.169 145.527,29.169 145.524,29.173 		"/>
	</g>
	<path fill="#9D4943" d="M32.371,109.531v3.716H3.93v29.439h29.441v3.717H3.93c-1.096,0-2.025-0.381-2.787-1.144
		C0.381,144.498,0,143.569,0,142.473v-29.012c0-1.095,0.381-2.023,1.144-2.786c0.761-0.762,1.69-1.144,2.787-1.144H32.371z"/>
	<path fill="#9D4943" d="M132.84,16.066v1.933h-14.786v15.305h15.306v1.932h-15.306c-0.57,0-1.053-0.197-1.449-0.594
		c-0.396-0.396-0.595-0.879-0.595-1.449V18.11c0-0.57,0.198-1.053,0.595-1.449c0.396-0.396,0.879-0.595,1.449-0.595H132.84z"/>
	<path fill="#9D4943" d="M95.326,136.828c0,1.763,0.56,3.179,1.68,4.251c1.118,1.072,2.774,1.607,4.967,1.607h12.791
		c2,0,3.608-0.643,4.823-1.929c1.214-1.286,1.822-2.882,1.822-4.788c0-1.81-0.583-3.382-1.75-4.716
		c-1.169-1.333-2.8-2.001-4.895-2.001h-12.791c-2.716,0-5.002-0.952-6.86-2.858c-1.858-1.904-2.787-4.238-2.787-7.002
		c0-2.716,0.929-5.038,2.787-6.967c1.858-1.93,4.144-2.895,6.86-2.895h13.004c2.811,0,5.12,0.798,6.932,2.394
		c1.81,1.597,2.715,3.608,2.715,6.039v0.571h-3.931v-0.571c0-1.287-0.476-2.395-1.429-3.324c-0.954-0.929-2.478-1.393-4.573-1.393
		H102.4c-1.811,0-3.286,0.583-4.43,1.75c-1.144,1.169-1.715,2.609-1.715,4.324c0,1.668,0.523,3.133,1.571,4.395
		c1.048,1.262,2.573,1.893,4.573,1.893h12.72c2.858,0,5.276,0.989,7.253,2.966c1.976,1.978,2.965,4.442,2.965,7.396
		c0,2.907-0.989,5.371-2.965,7.396c-1.977,2.025-4.395,3.037-7.253,3.037h-13.792c-2.334,0-4.573-0.798-6.717-2.395
		c-2.144-1.596-3.215-3.988-3.215-7.181v-0.072h3.93V136.828z"/>
	<path fill="#9D4943" d="M79.502,146.403L75,137.257H58.065l1.715-3.573h13.577l-10.004-20.58l-16.149,33.3h-4.288l18.007-36.872
		h4.859l18.008,36.872H79.502z"/>
	<path fill="#9D4943" d="M181.894,142.651h27.489v3.742h-31.447v-37.133h31.16v3.742h-27.202V142.651z M204.85,125.597v3.599
		h-16.911v-3.599H204.85z"/>
	<path fill="#9D4943" d="M168.996,109.261v3.742h-35.334v-3.742H168.996z M153.308,118.833v27.561h-3.958v-27.561H153.308z"/>
	<path fill="#9D4943" d="M223.798,109.261v33.391h26.051v3.742H219.84v-37.133H223.798z"/>
</g>
</svg>
