<?xml version="1.0" encoding="utf-8"?>
<!-- Generator: Adobe Illustrator 16.0.0, SVG Export Plug-In . SVG Version: 6.00 Build 0)  -->
<!DOCTYPE svg PUBLIC "-//W3C//DTD SVG 1.1//EN" "http://www.w3.org/Graphics/SVG/1.1/DTD/svg11.dtd">
<svg version="1.1" id="Layer_1" xmlns="http://www.w3.org/2000/svg" xmlns:xlink="http://www.w3.org/1999/xlink" x="0px" y="0px"
	 width="528.42px" height="174.825px" viewBox="0 0 528.42 174.825" enable-background="new 0 0 528.42 174.825"
	 xml:space="preserve">
<g>
	<polygon fill="#42508E" points="241.06,72.935 177.249,9.124 171.913,14.459 241.06,83.606 257.818,66.849 252.547,61.447 	"/>
</g>
<path fill="#42508E" d="M348.47,10.765L284.66,74.575l-17.413-17.413l37.8-39.609L289.224,0h-54.505l-15.823,17.553L254.1,54.44
	l10.07,10.317l20.49,20.49l69.147-69.146L348.47,10.765z M262.597,50.737l-17.955-17.139c-0.001-0.001-0.001-0.001-0.002-0.002
	c0,0,0,0,0-0.001l-3.716-3.894l-11.735-12.296l8.887-9.86h47.791l8.889,9.86l-11.227,11.763l0,0l-0.001,0.001l-2.842,2.978
	c-0.011-0.005-0.023-0.009-0.034-0.014L262.597,50.737z"/>
<g>
	<path fill="#42508E" d="M209.08,174.685l-1.918-4.158h-6.39l-1.919,4.158h-0.661l5.395-11.655h0.779l5.403,11.655H209.08z
		 M201.006,170.007h5.919l-2.96-6.426L201.006,170.007z"/>
	<path fill="#42508E" d="M213.126,163.202c0.591-0.1,1.148-0.171,1.67-0.216c0.521-0.044,1.072-0.066,1.652-0.066
		c1.719,0,3.02,0.311,3.901,0.933c0.881,0.622,1.321,1.584,1.321,2.886c0,1.271-0.458,2.233-1.376,2.886
		c-0.917,0.654-2.353,0.981-4.308,0.981c-0.712,0-1.461-0.034-2.245-0.103v4.182h-0.615V163.202z M218.887,169.716
		c0.739-0.248,1.278-0.615,1.62-1.103c0.34-0.488,0.511-1.105,0.511-1.851c0-1.145-0.377-1.984-1.131-2.52
		c-0.755-0.536-1.901-0.805-3.44-0.805c-0.954,0-1.855,0.066-2.707,0.197v6.324c0.7,0.083,1.454,0.125,2.263,0.125
		C217.187,170.085,218.147,169.962,218.887,169.716z"/>
	<path fill="#42508E" d="M233.925,174.685l-1.918-4.158h-6.39l-1.919,4.158h-0.661l5.395-11.655h0.779l5.403,11.655H233.925z
		 M225.852,170.007h5.919l-2.959-6.426L225.852,170.007z"/>
	<path fill="#42508E" d="M246.732,174.685l-4.806-5.15c-0.308,0.016-0.628,0.023-0.959,0.023c-0.435,0-0.824-0.008-1.167-0.023
		c-0.345-0.016-0.748-0.039-1.213-0.07v5.221h-0.615v-11.482c0.561-0.088,1.107-0.158,1.639-0.208
		c0.53-0.049,1.134-0.074,1.81-0.074c1.177,0,2.142,0.113,2.896,0.343c0.754,0.228,1.316,0.584,1.684,1.066
		c0.367,0.483,0.552,1.107,0.552,1.874c0.005,0.945-0.317,1.688-0.969,2.232c-0.651,0.543-1.641,0.889-2.969,1.035l4.887,5.214
		H246.732z M239.809,169.026c0.308,0.013,0.693,0.02,1.159,0.02c1.17,0,2.121-0.104,2.851-0.311c0.73-0.208,1.265-0.519,1.606-0.934
		c0.341-0.415,0.511-0.939,0.511-1.575c0-0.682-0.155-1.227-0.466-1.634c-0.311-0.406-0.797-0.701-1.457-0.882
		c-0.661-0.181-1.534-0.272-2.62-0.272c-0.573,0-1.068,0.019-1.484,0.052c-0.417,0.034-0.856,0.089-1.322,0.162v5.3
		C239.093,168.988,239.501,169.013,239.809,169.026z"/>
	<path fill="#42508E" d="M253.078,174.685V163.55h-4.87v-0.521h10.354v0.521h-4.869v11.135H253.078z"/>
	<path fill="#42508E" d="M273.424,163.029h0.67v11.655h-0.598v-10.632l-5.24,9.057h-0.688l-5.241-9.024v10.6h-0.597v-11.655h0.678
		l5.521,9.576L273.424,163.029z"/>
	<path fill="#42508E" d="M279.561,174.164h7.594v0.521h-8.209v-11.655h8.119v0.521h-7.504v4.882h6.625v0.521h-6.625V174.164z"/>
	<path fill="#42508E" d="M300.406,163.029h0.597v11.655h-0.678l-8.78-10.844v10.844h-0.597v-11.655h0.678l8.78,10.844V163.029z"/>
	<path fill="#42508E" d="M309.004,174.685V163.55h-4.871v-0.521h10.355v0.521h-4.869v11.135H309.004z"/>
	<path fill="#42508E" d="M318.182,174.704c-0.574-0.081-1.121-0.201-1.639-0.358v-0.535c1.135,0.33,2.241,0.496,3.321,0.496
		c1.315,0,2.307-0.221,2.974-0.662c0.666-0.44,1-1.092,1-1.952c0-0.483-0.112-0.884-0.334-1.202
		c-0.225-0.316-0.574-0.581-1.051-0.79c-0.477-0.211-1.113-0.394-1.91-0.552l-0.605-0.118c-1.214-0.236-2.107-0.603-2.686-1.099
		c-0.575-0.496-0.863-1.153-0.863-1.972c0-0.636,0.171-1.183,0.512-1.643c0.34-0.46,0.848-0.813,1.52-1.059
		c0.674-0.247,1.502-0.371,2.486-0.371c0.523,0,1.047,0.033,1.57,0.099c0.521,0.065,1.011,0.161,1.47,0.288v0.535
		c-1.013-0.269-2.04-0.402-3.077-0.402c-1.268,0-2.222,0.216-2.865,0.646c-0.643,0.431-0.963,1.057-0.963,1.875
		c0,0.478,0.1,0.877,0.303,1.196c0.202,0.32,0.525,0.588,0.969,0.804s1.045,0.399,1.805,0.552l0.607,0.118
		c0.887,0.173,1.604,0.394,2.153,0.665c0.55,0.271,0.956,0.602,1.218,0.996c0.263,0.394,0.395,0.866,0.395,1.417
		c0,1.014-0.404,1.791-1.209,2.335c-0.805,0.543-1.953,0.814-3.443,0.814C319.307,174.825,318.754,174.786,318.182,174.704z"/>
</g>
<g>
	<g>
		<path fill="#42508E" d="M32.371,109.531v3.716H3.93v29.439h29.441v3.717H3.93c-1.096,0-2.025-0.381-2.787-1.144
			C0.381,144.498,0,143.568,0,142.473v-29.012c0-1.095,0.381-2.023,1.144-2.786c0.761-0.762,1.69-1.144,2.787-1.144H32.371z"/>
		<path fill="#42508E" d="M56.809,142.687h27.296v3.717H52.878v-36.872h30.94v3.716h-27.01V142.687z M79.603,125.752v3.573H62.811
			v-3.573H79.603z"/>
		<path fill="#42508E" d="M104.326,136.828c0,1.763,0.56,3.179,1.68,4.251c1.118,1.071,2.774,1.607,4.967,1.607h12.791
			c2,0,3.608-0.643,4.823-1.929c1.214-1.286,1.822-2.882,1.822-4.788c0-1.81-0.583-3.382-1.75-4.716
			c-1.169-1.333-2.8-2.001-4.895-2.001h-12.791c-2.716,0-5.002-0.952-6.86-2.858c-1.858-1.904-2.787-4.238-2.787-7.002
			c0-2.716,0.929-5.038,2.787-6.967c1.858-1.93,4.144-2.895,6.86-2.895h13.004c2.811,0,5.12,0.798,6.932,2.394
			c1.81,1.597,2.715,3.608,2.715,6.039v0.57h-3.931v-0.57c0-1.287-0.476-2.395-1.429-3.324c-0.954-0.929-2.478-1.393-4.573-1.393
			H111.4c-1.811,0-3.286,0.583-4.43,1.75c-1.144,1.169-1.715,2.609-1.715,4.324c0,1.668,0.523,3.132,1.571,4.394
			c1.048,1.263,2.573,1.894,4.573,1.894h12.72c2.858,0,5.276,0.989,7.253,2.966c1.976,1.978,2.965,4.442,2.965,7.396
			c0,2.907-0.989,5.371-2.965,7.396c-1.977,2.025-4.395,3.037-7.253,3.037h-13.792c-2.334,0-4.573-0.798-6.717-2.395
			c-2.144-1.596-3.215-3.988-3.215-7.181v-0.072h3.93V136.828z"/>
		<path fill="#42508E" d="M184.502,146.403L180,137.257h-16.935l1.715-3.573h13.577l-10.004-20.58l-16.149,33.3h-4.288
			l18.007-36.872h4.859l18.008,36.872H184.502z"/>
		<path fill="#42508E" d="M230.591,109.531l17.792,36.872h-4.216l-17.864-36.872H230.591z M249.67,136.042l12.791-26.511h4.288
			l-15.006,30.941L249.67,136.042z"/>
		<path fill="#42508E" d="M304.978,146.403l-4.503-9.146h-16.934l1.715-3.573h13.576l-10.004-20.58l-16.149,33.3h-4.288
			l18.008-36.872h4.859l18.008,36.872H304.978z"/>
		<path fill="#42508E" d="M327.344,109.531v33.155h25.867v3.717h-29.798v-36.872H327.344z"/>
		<path fill="#42508E" d="M372.719,142.687h27.295v3.717h-31.226v-36.872h30.94v3.716h-27.01V142.687z M395.513,125.752v3.573
			h-16.792v-3.573H395.513z"/>
		<path fill="#42508E" d="M439.959,109.531c3.191,0,5.775,1,7.752,3.001s2.967,4.55,2.967,7.646c0,2.858-0.834,5.288-2.502,7.289
			c-1.668,2-3.857,3.358-6.574,4.073l10.861,14.863h-4.787l-10.789-14.793h-9.361v-3.643h11.504c2.191,0,4.025-0.703,5.502-2.108
			s2.215-3.323,2.215-5.752c0-2.048-0.607-3.704-1.82-4.967c-1.215-1.262-3.182-1.894-5.896-1.894h-17.578v33.156h-3.93v-36.872
			H439.959z"/>
		<path fill="#42508E" d="M469.399,146.403v-36.872h3.93v36.872H469.399z"/>
		<path fill="#42508E" d="M524.133,146.403l-4.502-9.146h-16.934l1.713-3.573h13.578l-10.004-20.58l-16.15,33.3h-4.287
			l18.008-36.872h4.859l18.006,36.872H524.133z"/>
	</g>
	<rect x="61.629" y="101.776" fill="#42508E" width="3.67" height="3.671"/>
	<rect x="72.581" y="101.776" fill="#42508E" width="3.67" height="3.671"/>
</g>
<path fill="#42508E" d="M253.977,15.099l9.083,18.822h-2.152l-9.119-18.822H253.977z M263.716,28.632l6.529-13.533h2.189
	l-7.66,15.795L263.716,28.632z"/>
</svg>
