<?xml version="1.0" encoding="UTF-8" standalone="no"?>
<!-- Created with Inkscape (http://www.inkscape.org/) -->

<svg
   width="48"
   height="48"
   viewBox="0 0 12.7 12.7"
   version="1.1"
   id="svg8606"
   xml:space="preserve"
   inkscape:version="1.2.2 (732a01da63, 2022-12-09)"
   sodipodi:docname="bahnico.svg"
   xmlns:inkscape="http://www.inkscape.org/namespaces/inkscape"
   xmlns:sodipodi="http://sodipodi.sourceforge.net/DTD/sodipodi-0.dtd"
   xmlns="http://www.w3.org/2000/svg"
   xmlns:svg="http://www.w3.org/2000/svg"><sodipodi:namedview
     id="namedview8608"
     pagecolor="#ffffff"
     bordercolor="#000000"
     borderopacity="0.25"
     inkscape:showpageshadow="2"
     inkscape:pageopacity="0.0"
     inkscape:pagecheckerboard="0"
     inkscape:deskcolor="#d1d1d1"
     inkscape:document-units="mm"
     showgrid="false"
     inkscape:zoom="16.206792"
     inkscape:cx="12.371356"
     inkscape:cy="23.416108"
     inkscape:window-width="1920"
     inkscape:window-height="991"
     inkscape:window-x="-9"
     inkscape:window-y="-9"
     inkscape:window-maximized="1"
     inkscape:current-layer="layer1" /><defs
     id="defs8603" /><g
     inkscape:label="Layer 1"
     inkscape:groupmode="layer"
     id="layer1"
     style="display:inline"><g
       inkscape:groupmode="layer"
       id="layer26"
       inkscape:label="Bahn"><path
         style="display:inline;fill:none;fill-opacity:1;fill-rule:evenodd;stroke:#000000;stroke-width:1;stroke-linecap:round;stroke-linejoin:round;stroke-miterlimit:5;stroke-dasharray:none;stroke-dashoffset:0;stroke-opacity:1"
         d="M 6.4485564,4.0813648 C 6.8289991,3.2505546 6.7143354,2.6077483 6.5628341,2.0243569"
         id="path10201"
         sodipodi:nodetypes="cc" /><path
         style="display:inline;fill:none;fill-opacity:1;fill-rule:evenodd;stroke:#000000;stroke-width:1;stroke-linecap:round;stroke-linejoin:round;stroke-miterlimit:5;stroke-dasharray:none;stroke-dashoffset:0;stroke-opacity:1"
         d="M 4.7670341,4.2609449 7.9341733,4.2446201"
         id="path10197" /><path
         style="display:inline;fill:#000000;stroke-width:0.0234869"
         d="M 2.9289959,12.457627 C 2.6068832,12.167639 2.209561,11.491548 1.9962948,10.870525 1.7941773,10.281967 1.710762,9.7924362 1.6928311,9.0896185 1.678955,8.5457367 1.7112863,8.1445993 1.8067977,7.675624 1.9801291,6.8245403 2.3848027,5.9812967 2.865258,5.4700451 L 3.0091697,5.3169087 h 3.339636 3.3396361 l 0.1005339,0.1081331 c 0.4787323,0.5149189 0.8977243,1.3649749 1.0901693,2.2117493 0.148132,0.6517949 0.180833,1.4856006 0.0835,2.1289997 -0.15581,1.0299062 -0.576038,2.0030522 -1.1373131,2.6337362 L 9.6845627,12.5577 6.361823,12.557217 3.039083,12.556734 2.9289959,12.457626 Z m 6.3172207,-0.99561 c 0.1382152,-0.14898 0.3082518,-0.452531 0.4439234,-0.792498 0.073653,-0.18456 0.1875993,-0.59065 0.1875993,-0.66858 0,-0.043248 -0.083678,-0.0443 -3.5219972,-0.0443 H 2.8337449 l 0.016123,0.087873 c 0.082571,0.450028 0.3770327,1.144136 0.5853589,1.379814 l 0.090111,0.101941 H 6.3559733 9.1866089 Z M 5.8286898,7.6367738 V 6.3479598 H 4.6633623 3.4980348 L 3.3937545,6.4889645 C 3.0234944,6.98962 2.7212797,8.0157886 2.7212797,8.7723498 v 0.1532379 h 1.553705 1.5537051 z M 9.9828126,8.6971161 C 9.9263689,7.7476359 9.7232264,7.061234 9.3378525,6.5178489 L 9.2173655,6.3479598 H 8.0409292 6.8644932 v 1.288814 1.2888139 h 1.5659506 1.5659508 z"
         id="path9571"
         sodipodi:nodetypes="ssssscccsscsccccssssscsscccsccccssccccsscccccccs" /></g><g
       inkscape:groupmode="layer"
       id="layer27"
       inkscape:label="Seil"><path
         style="display:inline;fill:none;fill-opacity:1;fill-rule:evenodd;stroke:#000000;stroke-width:1;stroke-linecap:round;stroke-linejoin:round;stroke-miterlimit:5;stroke-dasharray:none;stroke-dashoffset:0;stroke-opacity:1"
         d="M 1.1591076,3.232441 11.509449,0.66934385"
         id="path10199"
         sodipodi:nodetypes="cc" /></g></g></svg>
