<?xml version="1.0" encoding="UTF-8" standalone="no"?>
<!-- Created with Inkscape (http://www.inkscape.org/) -->

<svg
   width="48"
   height="48"
   viewBox="0 0 12.7 12.7"
   version="1.1"
   id="svg11999"
   inkscape:version="1.2.2 (732a01da63, 2022-12-09)"
   xml:space="preserve"
   sodipodi:docname="zugico.svg"
   xmlns:inkscape="http://www.inkscape.org/namespaces/inkscape"
   xmlns:sodipodi="http://sodipodi.sourceforge.net/DTD/sodipodi-0.dtd"
   xmlns="http://www.w3.org/2000/svg"
   xmlns:svg="http://www.w3.org/2000/svg"><sodipodi:namedview
     id="namedview12001"
     pagecolor="#ffffff"
     bordercolor="#000000"
     borderopacity="0.25"
     inkscape:showpageshadow="2"
     inkscape:pageopacity="0.0"
     inkscape:pagecheckerboard="0"
     inkscape:deskcolor="#d1d1d1"
     inkscape:document-units="mm"
     showgrid="false"
     inkscape:zoom="11.459933"
     inkscape:cx="4.0139852"
     inkscape:cy="21.771507"
     inkscape:window-width="1920"
     inkscape:window-height="991"
     inkscape:window-x="-9"
     inkscape:window-y="-9"
     inkscape:window-maximized="1"
     inkscape:current-layer="layer1" /><defs
     id="defs11996" /><g
     inkscape:label="Layer 1"
     inkscape:groupmode="layer"
     id="layer1"><path
       style="fill:#000000;stroke-width:0.0165059"
       d="m 0.66182165,11.696007 c -0.23849184,-0.0476 -0.40466882,-0.251549 -0.40466882,-0.496659 0,-0.09312 0.009063,-0.130964 0.0524776,-0.219151 0.0668651,-0.135822 0.11630209,-0.176593 0.34439194,-0.284024 0.10213018,-0.0481 0.18569123,-0.09613 0.18569123,-0.106717 0,-0.01059 -0.0182914,-0.183564 -0.0406475,-0.384385 C 0.58284809,8.2628319 0.64834916,6.6464021 0.98227048,5.6839694 1.1552054,5.1855339 1.3844946,4.8627583 1.7625989,4.5854832 3.1488963,3.5688702 6.7346098,1.8402884 8.3086278,1.4298082 8.6404727,1.343268 8.8165129,1.3146535 9.0170752,1.3146535 c 0.2707526,0 0.4325087,0.058347 0.6811329,0.2456908 0.6251499,0.4710649 1.1371489,1.4269315 1.5257989,2.8485631 0.08783,0.321274 0.206216,0.8402197 0.263718,1.1560118 0.01984,0.1089389 0.04111,0.2038164 0.04728,0.2108388 0.0062,0.00702 0.09196,-0.021923 0.190662,-0.064324 0.153729,-0.066042 0.195172,-0.077093 0.289107,-0.077093 0.19874,0 0.35903,0.099889 0.446984,0.2785489 0.04326,0.08788 0.05248,0.1261702 0.05248,0.218069 0,0.1791988 -0.08783,0.3432247 -0.227657,0.4251703 -0.04022,0.023572 -0.409496,0.194392 -0.820609,0.3796006 l -0.747478,0.3367432 -0.004,-0.053241 C 10.689672,6.8907075 10.591967,6.6365728 10.400487,6.4025462 l -0.05743,-0.070197 0.117568,-0.051929 c 0.06466,-0.028561 0.117567,-0.057901 0.117567,-0.0652 0,-0.0073 -0.02619,-0.1566031 -0.0582,-0.3317865 C 10.202577,4.1463855 9.6789238,2.832635 9.1293307,2.3945336 9.0354911,2.3197305 9.0342469,2.3193098 8.9348777,2.3287703 8.6074626,2.3599423 7.7622793,2.6411898 6.9177218,3.0000093 5.1960891,3.731464 3.1671802,4.801078 2.3463547,5.4099735 2.2221071,5.5021416 2.1762102,5.5486538 2.1111194,5.6483629 1.6966345,6.2832901 1.5774324,7.8357976 1.7826897,9.925885 c 0.010883,0.110815 0.025386,0.210543 0.032231,0.221618 0.00917,0.01484 0.047344,0.0042 0.145202,-0.04055 0.073017,-0.03338 0.1404735,-0.06069 0.149904,-0.06069 0.00943,0 0.017146,0.02852 0.017146,0.06338 0,0.222292 0.157368,0.554683 0.364773,0.770469 l 0.063753,0.06633 -0.7795893,0.350098 c -0.4287742,0.192553 -0.80558627,0.36048 -0.8373601,0.373171 -0.0806125,0.0322 -0.19358495,0.04292 -0.27692725,0.02629 z M 3.0349966,10.944688 C 2.6870076,10.853701 2.4286845,10.596798 2.3058794,10.219579 2.2698002,10.108755 2.2777905,9.810812 2.3204875,9.6748849 2.4193094,9.3602817 2.6777817,9.1018477 2.9937319,9.0017405 c 0.1731968,-0.054877 0.4482973,-0.050122 0.6186065,0.010692 0.067886,0.024241 0.152129,0.063066 0.1872058,0.086279 0.035077,0.023213 0.065478,0.039792 0.067559,0.036842 0.00208,-0.00295 0.012827,-0.046215 0.023882,-0.096145 C 3.9259401,8.8815202 4.0214667,8.7128527 4.1489186,8.5839848 4.2865209,8.4448539 4.4339792,8.3585025 4.6114933,8.3131021 5.2748382,8.1434472 5.9043982,8.6549817 5.8701757,9.3358159 c -0.016795,0.33413 -0.1764402,0.6125445 -0.4562961,0.7957621 -0.2957318,0.193611 -0.6819846,0.214724 -1.0001077,0.05467 -0.062889,-0.03164 -0.1192937,-0.05194 -0.1253442,-0.04511 -0.00605,0.0068 -0.019979,0.04942 -0.030952,0.09465 -0.079731,0.328614 -0.3747467,0.619681 -0.7189607,0.709337 -0.1220595,0.03179 -0.3811198,0.03157 -0.5035184,-4.34e-4 z M 4.1696861,9.8318712 C 4.6741926,9.5959363 5.1047143,9.3912724 5.1264014,9.3770626 5.2709094,9.2823772 5.2622307,9.0491408 5.1107629,8.9567897 5.0074367,8.8937909 4.9460095,8.9084884 4.5641937,9.0875647 4.3722294,9.1775984 3.9589137,9.3712129 3.6457145,9.517819 3.3325153,9.6644253 3.0591946,9.7954252 3.0383351,9.8089302 c -0.1430448,0.09261 -0.1334476,0.3271748 0.017143,0.4189908 0.1153618,0.07034 0.1218554,0.06803 1.114208,-0.3960498 z M 6.0480317,9.2413933 C 6.0235362,8.9665265 5.9365297,8.7326723 5.7837565,8.5310805 5.7404359,8.4739171 5.7077396,8.4245587 5.7110977,8.4213952 5.7386566,8.3954341 6.6521741,7.9990651 6.6654863,8.0072924 c 0.00952,0.00588 0.017311,0.038783 0.017311,0.073108 0,0.2176273 0.1568953,0.5521084 0.3576285,0.7624193 l 0.056554,0.059253 -0.5083239,0.2282145 c -0.2795782,0.125518 -0.5130309,0.2305994 -0.518784,0.2335145 -0.00575,0.00291 -0.015581,-0.052169 -0.02184,-0.1224084 z M 7.6155822,8.9147278 C 7.3583105,8.8499374 7.0992825,8.6529931 6.9741309,8.4270199 6.6563777,7.8532856 6.9682604,7.1209506 7.599059,6.9596194 c 0.3005014,-0.076855 0.612955,-0.01442 0.8787541,0.1755949 0.036049,0.025771 0.037145,0.025159 0.037382,-0.020855 1.321e-4,-0.026072 0.011589,-0.095684 0.025455,-0.1546927 C 8.6248127,6.6015092 8.91205,6.307419 9.2661536,6.2168545 9.9294985,6.0471996 10.559058,6.5587342 10.524836,7.2395683 10.51231,7.4887706 10.42607,7.6932758 10.251679,7.8873192 10.166066,7.9825801 9.9674244,8.1084735 9.8374576,8.1498409 9.685266,8.1982822 9.4482126,8.2088526 9.298981,8.1738522 9.1715262,8.1439592 8.9630463,8.0478261 8.9181953,7.9982665 8.9023965,7.980809 8.8841532,7.9665257 8.8776547,7.9665257 c -0.0065,0 -0.01673,0.042709 -0.022737,0.094909 C 8.8324428,8.2567591 8.7340041,8.4638259 8.5845844,8.6300841 8.4991151,8.7251854 8.3005032,8.8511481 8.1703629,8.89279 8.0263786,8.9388615 7.7541569,8.9496262 7.6155822,8.9147278 Z M 8.7377809,7.8511276 C 9.2461622,7.613169 9.6827023,7.3991132 9.7078702,7.3754479 9.7642554,7.3224285 9.7937822,7.2296618 9.7791307,7.1515624 9.7583658,7.0408762 9.6401463,6.9431607 9.5269993,6.9431607 9.5020353,6.9431607 9.2808241,7.0368774 9.035419,7.15142 8.7900139,7.2659626 8.3663984,7.4637468 8.0940512,7.5909407 7.8217041,7.7181344 7.5782828,7.8413681 7.553115,7.8647931 7.3870382,8.0193703 7.5212434,8.3133673 7.7474276,8.2904646 7.7890591,8.2862492 8.1549398,8.1239385 8.7377809,7.8511276 Z m -5.7734692,0.00955 C 2.8260366,7.8104553 2.723773,7.70185 2.6873325,7.5665201 2.6768659,7.5276507 2.6724163,7.2109534 2.6753865,6.7163129 c 0.00463,-0.7703725 0.00554,-0.7897677 0.040212,-0.8545041 0.045094,-0.084191 0.1111965,-0.1502935 0.1953871,-0.1953871 0.064353,-0.034469 0.083632,-0.035479 0.6769578,-0.035479 0.5969036,0 0.6122466,8.187e-4 0.6783042,0.036166 0.037172,0.019891 0.091952,0.063917 0.1217325,0.097835 0.1112835,0.1267449 0.1077871,0.094683 0.1077871,0.9883995 0,0.8937167 0.0035,0.8616547 -0.1077871,0.9883996 -0.02978,0.033918 -0.08456,0.077944 -0.1217325,0.097835 -0.065478,0.035038 -0.085869,0.036285 -0.6535454,0.03997 -0.4631468,0.00301 -0.5990442,-9.491e-4 -0.6483905,-0.01887 z M 5.2507074,6.5451802 C 5.1619595,6.5012508 5.0603876,6.3869736 5.0351144,6.3026194 c -0.027325,-0.091203 -0.027325,-1.598774 0,-1.6899769 0.025392,-0.08475 0.1353074,-0.2082597 0.2192852,-0.246406 0.06076,-0.0276 0.1200028,-0.030281 0.6691274,-0.030281 0.5491246,0 0.6083669,0.00268 0.6691274,0.030281 0.083978,0.038146 0.1938935,0.1616562 0.2192852,0.246406 0.027325,0.091203 0.027325,1.598774 0,1.6899769 -0.025481,0.085049 -0.1281212,0.199959 -0.2170685,0.2430177 -0.068017,0.032926 -0.096712,0.034394 -0.6724289,0.034381 -0.5785688,-1.26e-5 -0.6040488,-0.00133 -0.6717348,-0.034838 z M 7.5780376,5.3567564 C 7.4892897,5.312827 7.3877177,5.1985498 7.3624446,5.1141956 c -0.027325,-0.091203 -0.027325,-1.598774 0,-1.6899769 0.025392,-0.08475 0.1353073,-0.2082597 0.2192852,-0.246406 0.060761,-0.0276 0.1200027,-0.030281 0.6691274,-0.030281 0.5491246,0 0.6083669,0.00268 0.6691274,0.030281 0.083978,0.038146 0.1938935,0.1616562 0.2192851,0.246406 0.027325,0.091203 0.027325,1.598774 0,1.6899769 -0.025481,0.085049 -0.1281211,0.1999589 -0.2170684,0.2430177 -0.068017,0.032926 -0.096712,0.034394 -0.6724289,0.034381 -0.5785688,-1.26e-5 -0.6040488,-0.00133 -0.6717348,-0.034838 z"
       id="path13951"
       inkscape:label="path13951" /></g></svg>
