<?xml version="1.0" encoding="UTF-8" standalone="no"?>
<!-- Created with Inkscape (http://www.inkscape.org/) -->

<svg
   width="48"
   height="48"
   viewBox="0 0 12.7 12.7"
   version="1.1"
   id="svg10224"
   inkscape:version="1.2.2 (732a01da63, 2022-12-09)"
   sodipodi:docname="zugico_entwurf.svg"
   xmlns:inkscape="http://www.inkscape.org/namespaces/inkscape"
   xmlns:sodipodi="http://sodipodi.sourceforge.net/DTD/sodipodi-0.dtd"
   xmlns="http://www.w3.org/2000/svg"
   xmlns:svg="http://www.w3.org/2000/svg">
  <sodipodi:namedview
     id="namedview10226"
     pagecolor="#ffffff"
     bordercolor="#000000"
     borderopacity="0.25"
     inkscape:showpageshadow="2"
     inkscape:pageopacity="0.0"
     inkscape:pagecheckerboard="0"
     inkscape:deskcolor="#d1d1d1"
     inkscape:document-units="mm"
     showgrid="false"
     inkscape:zoom="16.206792"
     inkscape:cx="19.282039"
     inkscape:cy="24.033134"
     inkscape:window-width="1920"
     inkscape:window-height="991"
     inkscape:window-x="-9"
     inkscape:window-y="-9"
     inkscape:window-maximized="1"
     inkscape:current-layer="layer1" />
  <defs
     id="defs10221" />
  <g
     inkscape:label="Layer 1"
     inkscape:groupmode="layer"
     id="layer1">
    <path
       style="opacity:1;fill:none;fill-rule:evenodd;stroke:#000000;stroke-width:1;stroke-linecap:round;stroke-linejoin:round;stroke-miterlimit:5"
       d="M 0.73464567,11.672703 11.868609,6.6607874"
       id="path10345" />
    <path
       style="opacity:1;fill:none;fill-rule:evenodd;stroke:#000000;stroke-width:1;stroke-linecap:round;stroke-linejoin:round;stroke-miterlimit:5"
       d="m 1.3550131,11.297218 c 0,0 -0.72548527,-4.6652441 0.5550657,-5.6812599 1.2805509,-1.0160158 6.425672,-3.5184426 7.1832022,-3.1997901 1.409526,0.7361262 1.877428,4.4568505 1.877428,4.4568505"
       id="path10347"
       sodipodi:nodetypes="czcc" />
    <path
       style="fill:#ffffff;fill-opacity:1;fill-rule:evenodd;stroke:none;stroke-width:1.43791;stroke-linecap:round;stroke-linejoin:round;stroke-miterlimit:5"
       id="path10714-2"
       sodipodi:type="arc"
       sodipodi:cx="9.3269558"
       sodipodi:cy="7.7433858"
       sodipodi:rx="1.25"
       sodipodi:ry="1.25"
       sodipodi:start="6.2193954"
       sodipodi:end="6.1883729"
       sodipodi:open="true"
       sodipodi:arc-type="arc"
       d="M 10.574413,7.6637025 A 1.25,1.25 0 0 1 9.4163114,8.9901879 1.25,1.25 0 0 1 8.0808842,7.8424084 1.25,1.25 0 0 1 9.2182722,6.4981196 1.25,1.25 0 0 1 10.571342,7.6250478" />
    <path
       style="fill:#ffffff;fill-opacity:1;fill-rule:evenodd;stroke:none;stroke-width:1.43791;stroke-linecap:round;stroke-linejoin:round;stroke-miterlimit:5"
       id="path10714-2-6"
       sodipodi:type="arc"
       sodipodi:cx="7.8362212"
       sodipodi:cy="8.4565887"
       sodipodi:rx="1.25"
       sodipodi:ry="1.25"
       sodipodi:start="6.2193954"
       sodipodi:end="6.1883729"
       sodipodi:open="true"
       sodipodi:arc-type="arc"
       d="M 9.0836789,8.3769054 A 1.25,1.25 0 0 1 7.9255769,9.7033909 1.25,1.25 0 0 1 6.5901496,8.5556113 1.25,1.25 0 0 1 7.7275376,7.2113226 1.25,1.25 0 0 1 9.0806071,8.3382507" />
    <path
       style="fill:#ffffff;fill-opacity:1;fill-rule:evenodd;stroke:none;stroke-width:1.43791;stroke-linecap:round;stroke-linejoin:round;stroke-miterlimit:5"
       id="path10714-2-4"
       sodipodi:type="arc"
       sodipodi:cx="4.7180581"
       sodipodi:cy="9.7952757"
       sodipodi:rx="1.25"
       sodipodi:ry="1.25"
       sodipodi:start="6.2193954"
       sodipodi:end="6.1883729"
       sodipodi:open="true"
       sodipodi:arc-type="arc"
       d="M 5.9655158,9.7155924 A 1.25,1.25 0 0 1 4.8074137,11.042078 1.25,1.25 0 0 1 3.4719865,9.8942983 1.25,1.25 0 0 1 4.6093745,8.5500095 1.25,1.25 0 0 1 5.9624439,9.6769377" />
    <path
       style="fill:#ffffff;fill-opacity:1;fill-rule:evenodd;stroke:none;stroke-width:1.43791;stroke-linecap:round;stroke-linejoin:round;stroke-miterlimit:5"
       id="path10714-2-0"
       sodipodi:type="arc"
       sodipodi:cx="3.3303936"
       sodipodi:cy="10.464621"
       sodipodi:rx="1.25"
       sodipodi:ry="1.25"
       sodipodi:start="6.2193954"
       sodipodi:end="6.1883729"
       sodipodi:open="true"
       sodipodi:arc-type="arc"
       d="M 4.5778512,10.384937 A 1.25,1.25 0 0 1 3.4197492,11.711423 1.25,1.25 0 0 1 2.0843219,10.563643 1.25,1.25 0 0 1 3.22171,9.2193544 1.25,1.25 0 0 1 4.5747794,10.346283" />
    <path
       style="opacity:1;fill:#000000;fill-opacity:1;fill-rule:evenodd;stroke:none;stroke-width:1.15033;stroke-linecap:round;stroke-linejoin:round;stroke-miterlimit:5"
       id="path10714"
       sodipodi:type="arc"
       sodipodi:cx="3.2365878"
       sodipodi:cy="10.452441"
       sodipodi:rx="1"
       sodipodi:ry="1"
       sodipodi:start="6.2193954"
       sodipodi:end="6.1883729"
       sodipodi:open="true"
       sodipodi:arc-type="arc"
       d="M 4.2345539,10.388695 A 1,1 0 0 1 3.3080723,11.449883 1,1 0 0 1 2.2397305,10.531659 1,1 0 0 1 3.1496409,9.4562283 1,1 0 0 1 4.2320964,10.357771" />
    <path
       style="fill:#000000;fill-opacity:1;fill-rule:evenodd;stroke:none;stroke-width:1.15033;stroke-linecap:round;stroke-linejoin:round;stroke-miterlimit:5"
       id="path10714-3"
       sodipodi:type="arc"
       sodipodi:cx="9.4034643"
       sodipodi:cy="7.7056165"
       sodipodi:rx="1"
       sodipodi:ry="1"
       sodipodi:start="6.2193954"
       sodipodi:end="6.1883729"
       sodipodi:open="true"
       sodipodi:arc-type="arc"
       d="M 10.40143,7.6418698 A 1,1 0 0 1 9.4749488,8.7030582 1,1 0 0 1 8.406607,7.7848345 1,1 0 0 1 9.3165175,6.7094035 1,1 0 0 1 10.398973,7.6109461" />
    <path
       style="fill:#000000;fill-opacity:1;fill-rule:evenodd;stroke:none;stroke-width:1.15033;stroke-linecap:round;stroke-linejoin:round;stroke-miterlimit:5"
       id="path10714-37"
       sodipodi:type="arc"
       sodipodi:cx="4.7996855"
       sodipodi:cy="9.7789507"
       sodipodi:rx="1"
       sodipodi:ry="1"
       sodipodi:start="6.2193954"
       sodipodi:end="6.1883729"
       sodipodi:open="true"
       sodipodi:arc-type="arc"
       d="M 5.7976516,9.715204 A 1,1 0 0 1 4.87117,10.776392 1,1 0 0 1 3.8028282,9.8581688 1,1 0 0 1 4.7127386,8.7827377 1,1 0 0 1 5.7951941,9.6842803" />
    <path
       style="fill:#000000;fill-opacity:1;fill-rule:evenodd;stroke:none;stroke-width:1.15033;stroke-linecap:round;stroke-linejoin:round;stroke-miterlimit:5"
       id="path10714-8"
       sodipodi:type="arc"
       sodipodi:cx="7.7545934"
       sodipodi:cy="8.4402628"
       sodipodi:rx="1"
       sodipodi:ry="1"
       sodipodi:start="6.2193954"
       sodipodi:end="6.1883729"
       sodipodi:open="true"
       sodipodi:arc-type="arc"
       d="M 8.7525595,8.3765161 A 1,1 0 0 1 7.8260779,9.4377045 1,1 0 0 1 6.7577361,8.5194809 1,1 0 0 1 7.6676465,7.4440498 1,1 0 0 1 8.750102,8.3455924" />
    <rect
       style="opacity:1;fill:#000000;fill-opacity:1;fill-rule:evenodd;stroke:none;stroke-width:1.82664;stroke-linecap:round;stroke-linejoin:round;stroke-miterlimit:5"
       id="rect10986"
       width="1.8063153"
       height="2.236588"
       x="2.6283991"
       y="6.1546979"
       ry="0.41533071" />
    <rect
       style="fill:#000000;fill-opacity:1;fill-rule:evenodd;stroke:none;stroke-width:1.82664;stroke-linecap:round;stroke-linejoin:round;stroke-miterlimit:5"
       id="rect10986-3"
       width="1.8063153"
       height="2.236588"
       x="4.9413571"
       y="4.8731499"
       ry="0.41533071" />
    <rect
       style="fill:#000000;fill-opacity:1;fill-rule:evenodd;stroke:none;stroke-width:1.82664;stroke-linecap:round;stroke-linejoin:round;stroke-miterlimit:5"
       id="rect10986-3-5"
       width="1.8063153"
       height="2.236588"
       x="7.243247"
       y="3.6977167"
       ry="0.41533071" />
    <path
       style="opacity:1;fill:none;fill-opacity:1;fill-rule:evenodd;stroke:#ffffff;stroke-width:0.5;stroke-linecap:round;stroke-linejoin:round;stroke-miterlimit:5;stroke-dasharray:none;stroke-opacity:1"
       d="M 3.1344882,10.497271 4.9139635,9.664672"
       id="path11084" />
    <path
       style="fill:none;fill-opacity:1;fill-rule:evenodd;stroke:#ffffff;stroke-width:0.5;stroke-linecap:round;stroke-linejoin:round;stroke-miterlimit:5;stroke-dasharray:none;stroke-opacity:1"
       d="m 7.6321527,8.5463784 1.779475,-0.832599"
       id="path11084-4" />
  </g>
</svg>
